<mxfile host="app.diagrams.net" modified="2023-06-25T02:04:17.884Z" agent="Mozilla/5.0 (Windows NT 10.0; Win64; x64) AppleWebKit/537.36 (KHTML, like Gecko) Chrome/114.0.0.0 Safari/537.36" etag="pOEkBiFmdOi-utBuGOS1" version="21.5.0" type="device">
  <diagram name="Page-1" id="80d4a630-b321-0f5e-ff81-c5a36ef4752d">
    <mxGraphModel dx="1100" dy="605" grid="1" gridSize="10" guides="1" tooltips="1" connect="1" arrows="1" fold="1" page="1" pageScale="1" pageWidth="1100" pageHeight="850" background="none" math="0" shadow="0">
      <root>
        <mxCell id="0" />
        <mxCell id="1" parent="0" />
        <mxCell id="q5JJ5bhiP4EDSJoQisQF-2" value="LOCAL ENVIRONTMENT" style="swimlane;whiteSpace=wrap;html=1;" vertex="1" parent="1">
          <mxGeometry x="830" y="190" width="220" height="200" as="geometry" />
        </mxCell>
        <mxCell id="q5JJ5bhiP4EDSJoQisQF-4" value="&lt;font style=&quot;font-size: 10px;&quot;&gt;MQTT Broker (Mosquitto)&lt;/font&gt;" style="rounded=1;whiteSpace=wrap;html=1;" vertex="1" parent="q5JJ5bhiP4EDSJoQisQF-2">
          <mxGeometry x="15" y="40" width="70" height="40" as="geometry" />
        </mxCell>
        <mxCell id="q5JJ5bhiP4EDSJoQisQF-5" value="&lt;font style=&quot;font-size: 10px;&quot;&gt;BACKEND WEB SERVER (NODE JS)&lt;/font&gt;" style="rounded=1;whiteSpace=wrap;html=1;" vertex="1" parent="q5JJ5bhiP4EDSJoQisQF-2">
          <mxGeometry x="120" y="35" width="70" height="50" as="geometry" />
        </mxCell>
        <mxCell id="q5JJ5bhiP4EDSJoQisQF-19" value="" style="endArrow=classic;html=1;rounded=0;exitX=0;exitY=0.5;exitDx=0;exitDy=0;entryX=1;entryY=0.5;entryDx=0;entryDy=0;" edge="1" parent="q5JJ5bhiP4EDSJoQisQF-2" source="q5JJ5bhiP4EDSJoQisQF-5" target="q5JJ5bhiP4EDSJoQisQF-4">
          <mxGeometry width="50" height="50" relative="1" as="geometry">
            <mxPoint y="130" as="sourcePoint" />
            <mxPoint x="50" y="80" as="targetPoint" />
          </mxGeometry>
        </mxCell>
        <mxCell id="q5JJ5bhiP4EDSJoQisQF-20" value="MQTT SUBSCRIBE" style="edgeLabel;html=1;align=center;verticalAlign=middle;resizable=0;points=[];fontSize=8;rotation=-60;" vertex="1" connectable="0" parent="q5JJ5bhiP4EDSJoQisQF-19">
          <mxGeometry x="-0.4706" y="-1" relative="1" as="geometry">
            <mxPoint x="-5" y="1" as="offset" />
          </mxGeometry>
        </mxCell>
        <mxCell id="q5JJ5bhiP4EDSJoQisQF-8" value="&lt;font style=&quot;font-size: 10px;&quot;&gt;FRONTEND WEB SERVER (NEXT JS)&lt;/font&gt;" style="rounded=1;whiteSpace=wrap;html=1;" vertex="1" parent="q5JJ5bhiP4EDSJoQisQF-2">
          <mxGeometry x="15" y="135" width="70" height="50" as="geometry" />
        </mxCell>
        <mxCell id="q5JJ5bhiP4EDSJoQisQF-23" value="" style="endArrow=classic;startArrow=classic;html=1;rounded=0;exitX=0.5;exitY=0;exitDx=0;exitDy=0;" edge="1" parent="q5JJ5bhiP4EDSJoQisQF-2" source="q5JJ5bhiP4EDSJoQisQF-8">
          <mxGeometry width="50" height="50" relative="1" as="geometry">
            <mxPoint x="100" y="135" as="sourcePoint" />
            <mxPoint x="150" y="85" as="targetPoint" />
          </mxGeometry>
        </mxCell>
        <mxCell id="q5JJ5bhiP4EDSJoQisQF-9" value="EDGE COMPUTING DEVICE" style="swimlane;whiteSpace=wrap;html=1;" vertex="1" parent="1">
          <mxGeometry x="520" y="190" width="200" height="200" as="geometry" />
        </mxCell>
        <mxCell id="q5JJ5bhiP4EDSJoQisQF-10" value="&lt;span style=&quot;font-size: 10px;&quot;&gt;LOCATOR 1&lt;/span&gt;" style="rounded=1;whiteSpace=wrap;html=1;" vertex="1" parent="q5JJ5bhiP4EDSJoQisQF-9">
          <mxGeometry x="10" y="40" width="70" height="40" as="geometry" />
        </mxCell>
        <mxCell id="q5JJ5bhiP4EDSJoQisQF-11" value="&lt;font style=&quot;font-size: 10px;&quot;&gt;BEACON &lt;br&gt;TAG&lt;/font&gt;" style="rounded=1;whiteSpace=wrap;html=1;" vertex="1" parent="q5JJ5bhiP4EDSJoQisQF-9">
          <mxGeometry x="65" y="120" width="70" height="50" as="geometry" />
        </mxCell>
        <mxCell id="q5JJ5bhiP4EDSJoQisQF-12" value="&lt;font style=&quot;font-size: 9px;&quot;&gt;LOCATOR &lt;br&gt;BROKER&lt;/font&gt;" style="rounded=1;whiteSpace=wrap;html=1;" vertex="1" parent="q5JJ5bhiP4EDSJoQisQF-9">
          <mxGeometry x="110" y="40" width="70" height="40" as="geometry" />
        </mxCell>
        <mxCell id="q5JJ5bhiP4EDSJoQisQF-14" value="" style="endArrow=classic;html=1;rounded=0;exitX=0.587;exitY=-0.059;exitDx=0;exitDy=0;exitPerimeter=0;" edge="1" parent="q5JJ5bhiP4EDSJoQisQF-9" source="q5JJ5bhiP4EDSJoQisQF-11">
          <mxGeometry width="50" height="50" relative="1" as="geometry">
            <mxPoint x="90" y="130" as="sourcePoint" />
            <mxPoint x="140" y="80" as="targetPoint" />
          </mxGeometry>
        </mxCell>
        <mxCell id="q5JJ5bhiP4EDSJoQisQF-16" value="&lt;font style=&quot;font-size: 8px;&quot;&gt;BLUETOOTH&lt;/font&gt;" style="edgeLabel;html=1;align=center;verticalAlign=middle;resizable=0;points=[];" vertex="1" connectable="0" parent="q5JJ5bhiP4EDSJoQisQF-14">
          <mxGeometry x="-0.2958" y="-3" relative="1" as="geometry">
            <mxPoint x="10" y="-6" as="offset" />
          </mxGeometry>
        </mxCell>
        <mxCell id="q5JJ5bhiP4EDSJoQisQF-15" value="" style="endArrow=classic;html=1;rounded=0;exitX=0.4;exitY=-0.059;exitDx=0;exitDy=0;exitPerimeter=0;entryX=0.575;entryY=1.038;entryDx=0;entryDy=0;entryPerimeter=0;" edge="1" parent="q5JJ5bhiP4EDSJoQisQF-9" source="q5JJ5bhiP4EDSJoQisQF-11" target="q5JJ5bhiP4EDSJoQisQF-10">
          <mxGeometry width="50" height="50" relative="1" as="geometry">
            <mxPoint x="84" y="110" as="sourcePoint" />
            <mxPoint x="116" y="84" as="targetPoint" />
          </mxGeometry>
        </mxCell>
        <mxCell id="q5JJ5bhiP4EDSJoQisQF-21" value="&lt;font style=&quot;font-size: 8px;&quot;&gt;BLUETOOTH&lt;/font&gt;" style="edgeLabel;html=1;align=center;verticalAlign=middle;resizable=0;points=[];" vertex="1" connectable="0" parent="q5JJ5bhiP4EDSJoQisQF-9">
          <mxGeometry x="70.00487460400745" y="99.9963459095942" as="geometry" />
        </mxCell>
        <mxCell id="q5JJ5bhiP4EDSJoQisQF-17" value="" style="endArrow=classic;html=1;rounded=0;exitX=1;exitY=0.5;exitDx=0;exitDy=0;entryX=0;entryY=0.5;entryDx=0;entryDy=0;" edge="1" parent="1" source="q5JJ5bhiP4EDSJoQisQF-12" target="q5JJ5bhiP4EDSJoQisQF-4">
          <mxGeometry width="50" height="50" relative="1" as="geometry">
            <mxPoint x="680" y="260" as="sourcePoint" />
            <mxPoint x="730" y="210" as="targetPoint" />
          </mxGeometry>
        </mxCell>
        <mxCell id="q5JJ5bhiP4EDSJoQisQF-18" value="MQTT PUBLISH" style="edgeLabel;html=1;align=center;verticalAlign=bottom;resizable=0;points=[];labelPosition=center;verticalLabelPosition=top;fontSize=10;" vertex="1" connectable="0" parent="q5JJ5bhiP4EDSJoQisQF-17">
          <mxGeometry x="0.2912" y="-1" relative="1" as="geometry">
            <mxPoint x="-16" y="-1" as="offset" />
          </mxGeometry>
        </mxCell>
        <mxCell id="q5JJ5bhiP4EDSJoQisQF-27" value="LOCAL NETWORK" style="swimlane;horizontal=0;whiteSpace=wrap;html=1;dashed=1;" vertex="1" parent="1">
          <mxGeometry x="480" y="170" width="580" height="240" as="geometry" />
        </mxCell>
        <mxCell id="q5JJ5bhiP4EDSJoQisQF-7" value="&lt;font style=&quot;font-size: 9px;&quot;&gt;DATABASE SERVER (XAMPP - MYSQL)&lt;/font&gt;" style="rounded=1;whiteSpace=wrap;html=1;fontStyle=1" vertex="1" parent="q5JJ5bhiP4EDSJoQisQF-27">
          <mxGeometry x="457.5" y="160" width="95" height="45" as="geometry" />
        </mxCell>
        <mxCell id="q5JJ5bhiP4EDSJoQisQF-24" value="" style="endArrow=classic;startArrow=classic;html=1;rounded=0;exitX=0.5;exitY=0;exitDx=0;exitDy=0;entryX=0.5;entryY=1;entryDx=0;entryDy=0;" edge="1" parent="1" source="q5JJ5bhiP4EDSJoQisQF-7" target="q5JJ5bhiP4EDSJoQisQF-5">
          <mxGeometry width="50" height="50" relative="1" as="geometry">
            <mxPoint x="890" y="320" as="sourcePoint" />
            <mxPoint x="990" y="285" as="targetPoint" />
          </mxGeometry>
        </mxCell>
      </root>
    </mxGraphModel>
  </diagram>
</mxfile>
